<?xml version="1.0" encoding="utf-8" standalone="no"?>
<!DOCTYPE svg PUBLIC "-//W3C//DTD SVG 1.1//EN"
  "http://www.w3.org/Graphics/SVG/1.1/DTD/svg11.dtd">
<svg height="1080pt" version="1.1" viewBox="0 0 1080 1080" width="1080pt" xmlns="http://www.w3.org/2000/svg" xmlns:xlink="http://www.w3.org/1999/xlink">
 <metadata>
  <rdf:RDF xmlns:cc="http://creativecommons.org/ns#" xmlns:dc="http://purl.org/dc/elements/1.1/" xmlns:rdf="http://www.w3.org/1999/02/22-rdf-syntax-ns#">
   <cc:Work>
    <dc:type rdf:resource="http://purl.org/dc/dcmitype/StillImage"/>
    <dc:date>2021-09-03T04:49:24.785736</dc:date>
    <dc:format>image/svg+xml</dc:format>
    <dc:creator>
     <cc:Agent>
      <dc:title>Matplotlib v3.4.3, https://matplotlib.org/</dc:title>
     </cc:Agent>
    </dc:creator>
   </cc:Work>
  </rdf:RDF>
 </metadata>
 <defs>
  <style type="text/css">*{stroke-linecap:butt;stroke-linejoin:round;}</style>
 </defs>
 <g id="figure_1">
  <g id="patch_1">
   <path d="M 0 1080 
L 1080 1080 
L 1080 0 
L 0 0 
z
" style="fill:#ffffff;"/>
  </g>
  <g id="axes_1">
   <g id="patch_2">
    <path d="M 135 945 
L 972 945 
L 972 129.6 
L 135 129.6 
z
" style="fill:#ffffff;"/>
   </g>
   <g id="matplotlib.axis_1">
    <g id="xtick_1">
     <g id="text_1">
      <!-- 0 -->
      <g style="fill:#262626;" transform="translate(177.184517 961.54375)rotate(-90)scale(0.15 -0.15)">
       <defs>
        <path d="M 2034 4250 
Q 1547 4250 1301 3770 
Q 1056 3291 1056 2328 
Q 1056 1369 1301 889 
Q 1547 409 2034 409 
Q 2525 409 2770 889 
Q 3016 1369 3016 2328 
Q 3016 3291 2770 3770 
Q 2525 4250 2034 4250 
z
M 2034 4750 
Q 2819 4750 3233 4129 
Q 3647 3509 3647 2328 
Q 3647 1150 3233 529 
Q 2819 -91 2034 -91 
Q 1250 -91 836 529 
Q 422 1150 422 2328 
Q 422 3509 836 4129 
Q 1250 4750 2034 4750 
z
" id="DejaVuSans-30" transform="scale(0.015625)"/>
       </defs>
       <use xlink:href="#DejaVuSans-30"/>
      </g>
     </g>
    </g>
    <g id="xtick_2">
     <g id="text_2">
      <!-- 50 -->
      <g style="fill:#262626;" transform="translate(281.704997 971.0875)rotate(-90)scale(0.15 -0.15)">
       <defs>
        <path d="M 691 4666 
L 3169 4666 
L 3169 4134 
L 1269 4134 
L 1269 2991 
Q 1406 3038 1543 3061 
Q 1681 3084 1819 3084 
Q 2600 3084 3056 2656 
Q 3513 2228 3513 1497 
Q 3513 744 3044 326 
Q 2575 -91 1722 -91 
Q 1428 -91 1123 -41 
Q 819 9 494 109 
L 494 744 
Q 775 591 1075 516 
Q 1375 441 1709 441 
Q 2250 441 2565 725 
Q 2881 1009 2881 1497 
Q 2881 1984 2565 2268 
Q 2250 2553 1709 2553 
Q 1456 2553 1204 2497 
Q 953 2441 691 2322 
L 691 4666 
z
" id="DejaVuSans-35" transform="scale(0.015625)"/>
       </defs>
       <use xlink:href="#DejaVuSans-35"/>
       <use x="63.623047" xlink:href="#DejaVuSans-30"/>
      </g>
     </g>
    </g>
    <g id="xtick_3">
     <g id="text_3">
      <!-- 100 -->
      <g style="fill:#262626;" transform="translate(386.225476 980.63125)rotate(-90)scale(0.15 -0.15)">
       <defs>
        <path d="M 794 531 
L 1825 531 
L 1825 4091 
L 703 3866 
L 703 4441 
L 1819 4666 
L 2450 4666 
L 2450 531 
L 3481 531 
L 3481 0 
L 794 0 
L 794 531 
z
" id="DejaVuSans-31" transform="scale(0.015625)"/>
       </defs>
       <use xlink:href="#DejaVuSans-31"/>
       <use x="63.623047" xlink:href="#DejaVuSans-30"/>
       <use x="127.246094" xlink:href="#DejaVuSans-30"/>
      </g>
     </g>
    </g>
    <g id="xtick_4">
     <g id="text_4">
      <!-- 150 -->
      <g style="fill:#262626;" transform="translate(490.745956 980.63125)rotate(-90)scale(0.15 -0.15)">
       <use xlink:href="#DejaVuSans-31"/>
       <use x="63.623047" xlink:href="#DejaVuSans-35"/>
       <use x="127.246094" xlink:href="#DejaVuSans-30"/>
      </g>
     </g>
    </g>
    <g id="xtick_5">
     <g id="text_5">
      <!-- 200 -->
      <g style="fill:#262626;" transform="translate(595.266435 980.63125)rotate(-90)scale(0.15 -0.15)">
       <defs>
        <path d="M 1228 531 
L 3431 531 
L 3431 0 
L 469 0 
L 469 531 
Q 828 903 1448 1529 
Q 2069 2156 2228 2338 
Q 2531 2678 2651 2914 
Q 2772 3150 2772 3378 
Q 2772 3750 2511 3984 
Q 2250 4219 1831 4219 
Q 1534 4219 1204 4116 
Q 875 4013 500 3803 
L 500 4441 
Q 881 4594 1212 4672 
Q 1544 4750 1819 4750 
Q 2544 4750 2975 4387 
Q 3406 4025 3406 3419 
Q 3406 3131 3298 2873 
Q 3191 2616 2906 2266 
Q 2828 2175 2409 1742 
Q 1991 1309 1228 531 
z
" id="DejaVuSans-32" transform="scale(0.015625)"/>
       </defs>
       <use xlink:href="#DejaVuSans-32"/>
       <use x="63.623047" xlink:href="#DejaVuSans-30"/>
       <use x="127.246094" xlink:href="#DejaVuSans-30"/>
      </g>
     </g>
    </g>
    <g id="xtick_6">
     <g id="text_6">
      <!-- 250 -->
      <g style="fill:#262626;" transform="translate(699.786915 980.63125)rotate(-90)scale(0.15 -0.15)">
       <use xlink:href="#DejaVuSans-32"/>
       <use x="63.623047" xlink:href="#DejaVuSans-35"/>
       <use x="127.246094" xlink:href="#DejaVuSans-30"/>
      </g>
     </g>
    </g>
    <g id="xtick_7">
     <g id="text_7">
      <!-- 300 -->
      <g style="fill:#262626;" transform="translate(804.307394 980.63125)rotate(-90)scale(0.15 -0.15)">
       <defs>
        <path d="M 2597 2516 
Q 3050 2419 3304 2112 
Q 3559 1806 3559 1356 
Q 3559 666 3084 287 
Q 2609 -91 1734 -91 
Q 1441 -91 1130 -33 
Q 819 25 488 141 
L 488 750 
Q 750 597 1062 519 
Q 1375 441 1716 441 
Q 2309 441 2620 675 
Q 2931 909 2931 1356 
Q 2931 1769 2642 2001 
Q 2353 2234 1838 2234 
L 1294 2234 
L 1294 2753 
L 1863 2753 
Q 2328 2753 2575 2939 
Q 2822 3125 2822 3475 
Q 2822 3834 2567 4026 
Q 2313 4219 1838 4219 
Q 1578 4219 1281 4162 
Q 984 4106 628 3988 
L 628 4550 
Q 988 4650 1302 4700 
Q 1616 4750 1894 4750 
Q 2613 4750 3031 4423 
Q 3450 4097 3450 3541 
Q 3450 3153 3228 2886 
Q 3006 2619 2597 2516 
z
" id="DejaVuSans-33" transform="scale(0.015625)"/>
       </defs>
       <use xlink:href="#DejaVuSans-33"/>
       <use x="63.623047" xlink:href="#DejaVuSans-30"/>
       <use x="127.246094" xlink:href="#DejaVuSans-30"/>
      </g>
     </g>
    </g>
    <g id="xtick_8">
     <g id="text_8">
      <!-- 350 -->
      <g style="fill:#262626;" transform="translate(908.827874 980.63125)rotate(-90)scale(0.15 -0.15)">
       <use xlink:href="#DejaVuSans-33"/>
       <use x="63.623047" xlink:href="#DejaVuSans-35"/>
       <use x="127.246094" xlink:href="#DejaVuSans-30"/>
      </g>
     </g>
    </g>
    <g id="text_9">
     <!-- Jours -->
     <g style="fill:#262626;" transform="translate(528.773438 999.828125)scale(0.2 -0.2)">
      <defs>
       <path d="M 628 4666 
L 1259 4666 
L 1259 325 
Q 1259 -519 939 -900 
Q 619 -1281 -91 -1281 
L -331 -1281 
L -331 -750 
L -134 -750 
Q 284 -750 456 -515 
Q 628 -281 628 325 
L 628 4666 
z
" id="DejaVuSans-4a" transform="scale(0.015625)"/>
       <path d="M 1959 3097 
Q 1497 3097 1228 2736 
Q 959 2375 959 1747 
Q 959 1119 1226 758 
Q 1494 397 1959 397 
Q 2419 397 2687 759 
Q 2956 1122 2956 1747 
Q 2956 2369 2687 2733 
Q 2419 3097 1959 3097 
z
M 1959 3584 
Q 2709 3584 3137 3096 
Q 3566 2609 3566 1747 
Q 3566 888 3137 398 
Q 2709 -91 1959 -91 
Q 1206 -91 779 398 
Q 353 888 353 1747 
Q 353 2609 779 3096 
Q 1206 3584 1959 3584 
z
" id="DejaVuSans-6f" transform="scale(0.015625)"/>
       <path d="M 544 1381 
L 544 3500 
L 1119 3500 
L 1119 1403 
Q 1119 906 1312 657 
Q 1506 409 1894 409 
Q 2359 409 2629 706 
Q 2900 1003 2900 1516 
L 2900 3500 
L 3475 3500 
L 3475 0 
L 2900 0 
L 2900 538 
Q 2691 219 2414 64 
Q 2138 -91 1772 -91 
Q 1169 -91 856 284 
Q 544 659 544 1381 
z
M 1991 3584 
L 1991 3584 
z
" id="DejaVuSans-75" transform="scale(0.015625)"/>
       <path d="M 2631 2963 
Q 2534 3019 2420 3045 
Q 2306 3072 2169 3072 
Q 1681 3072 1420 2755 
Q 1159 2438 1159 1844 
L 1159 0 
L 581 0 
L 581 3500 
L 1159 3500 
L 1159 2956 
Q 1341 3275 1631 3429 
Q 1922 3584 2338 3584 
Q 2397 3584 2469 3576 
Q 2541 3569 2628 3553 
L 2631 2963 
z
" id="DejaVuSans-72" transform="scale(0.015625)"/>
       <path d="M 2834 3397 
L 2834 2853 
Q 2591 2978 2328 3040 
Q 2066 3103 1784 3103 
Q 1356 3103 1142 2972 
Q 928 2841 928 2578 
Q 928 2378 1081 2264 
Q 1234 2150 1697 2047 
L 1894 2003 
Q 2506 1872 2764 1633 
Q 3022 1394 3022 966 
Q 3022 478 2636 193 
Q 2250 -91 1575 -91 
Q 1294 -91 989 -36 
Q 684 19 347 128 
L 347 722 
Q 666 556 975 473 
Q 1284 391 1588 391 
Q 1994 391 2212 530 
Q 2431 669 2431 922 
Q 2431 1156 2273 1281 
Q 2116 1406 1581 1522 
L 1381 1569 
Q 847 1681 609 1914 
Q 372 2147 372 2553 
Q 372 3047 722 3315 
Q 1072 3584 1716 3584 
Q 2034 3584 2315 3537 
Q 2597 3491 2834 3397 
z
" id="DejaVuSans-73" transform="scale(0.015625)"/>
      </defs>
      <use xlink:href="#DejaVuSans-4a"/>
      <use x="29.492188" xlink:href="#DejaVuSans-6f"/>
      <use x="90.673828" xlink:href="#DejaVuSans-75"/>
      <use x="154.052734" xlink:href="#DejaVuSans-72"/>
      <use x="195.166016" xlink:href="#DejaVuSans-73"/>
     </g>
    </g>
   </g>
   <g id="matplotlib.axis_2">
    <g id="ytick_1">
     <g id="text_10">
      <!-- 0 -->
      <g style="fill:#262626;" transform="translate(118.45625 914.081169)scale(0.15 -0.15)">
       <use xlink:href="#DejaVuSans-30"/>
      </g>
     </g>
    </g>
    <g id="ytick_2">
     <g id="text_11">
      <!-- 100 -->
      <g style="fill:#262626;" transform="translate(99.36875 797.690788)scale(0.15 -0.15)">
       <use xlink:href="#DejaVuSans-31"/>
       <use x="63.623047" xlink:href="#DejaVuSans-30"/>
       <use x="127.246094" xlink:href="#DejaVuSans-30"/>
      </g>
     </g>
    </g>
    <g id="ytick_3">
     <g id="text_12">
      <!-- 200 -->
      <g style="fill:#262626;" transform="translate(99.36875 681.300406)scale(0.15 -0.15)">
       <use xlink:href="#DejaVuSans-32"/>
       <use x="63.623047" xlink:href="#DejaVuSans-30"/>
       <use x="127.246094" xlink:href="#DejaVuSans-30"/>
      </g>
     </g>
    </g>
    <g id="ytick_4">
     <g id="text_13">
      <!-- 300 -->
      <g style="fill:#262626;" transform="translate(99.36875 564.910025)scale(0.15 -0.15)">
       <use xlink:href="#DejaVuSans-33"/>
       <use x="63.623047" xlink:href="#DejaVuSans-30"/>
       <use x="127.246094" xlink:href="#DejaVuSans-30"/>
      </g>
     </g>
    </g>
    <g id="ytick_5">
     <g id="text_14">
      <!-- 400 -->
      <g style="fill:#262626;" transform="translate(99.36875 448.519643)scale(0.15 -0.15)">
       <defs>
        <path d="M 2419 4116 
L 825 1625 
L 2419 1625 
L 2419 4116 
z
M 2253 4666 
L 3047 4666 
L 3047 1625 
L 3713 1625 
L 3713 1100 
L 3047 1100 
L 3047 0 
L 2419 0 
L 2419 1100 
L 313 1100 
L 313 1709 
L 2253 4666 
z
" id="DejaVuSans-34" transform="scale(0.015625)"/>
       </defs>
       <use xlink:href="#DejaVuSans-34"/>
       <use x="63.623047" xlink:href="#DejaVuSans-30"/>
       <use x="127.246094" xlink:href="#DejaVuSans-30"/>
      </g>
     </g>
    </g>
    <g id="ytick_6">
     <g id="text_15">
      <!-- 500 -->
      <g style="fill:#262626;" transform="translate(99.36875 332.129262)scale(0.15 -0.15)">
       <use xlink:href="#DejaVuSans-35"/>
       <use x="63.623047" xlink:href="#DejaVuSans-30"/>
       <use x="127.246094" xlink:href="#DejaVuSans-30"/>
      </g>
     </g>
    </g>
    <g id="ytick_7">
     <g id="text_16">
      <!-- 600 -->
      <g style="fill:#262626;" transform="translate(99.36875 215.73888)scale(0.15 -0.15)">
       <defs>
        <path d="M 2113 2584 
Q 1688 2584 1439 2293 
Q 1191 2003 1191 1497 
Q 1191 994 1439 701 
Q 1688 409 2113 409 
Q 2538 409 2786 701 
Q 3034 994 3034 1497 
Q 3034 2003 2786 2293 
Q 2538 2584 2113 2584 
z
M 3366 4563 
L 3366 3988 
Q 3128 4100 2886 4159 
Q 2644 4219 2406 4219 
Q 1781 4219 1451 3797 
Q 1122 3375 1075 2522 
Q 1259 2794 1537 2939 
Q 1816 3084 2150 3084 
Q 2853 3084 3261 2657 
Q 3669 2231 3669 1497 
Q 3669 778 3244 343 
Q 2819 -91 2113 -91 
Q 1303 -91 875 529 
Q 447 1150 447 2328 
Q 447 3434 972 4092 
Q 1497 4750 2381 4750 
Q 2619 4750 2861 4703 
Q 3103 4656 3366 4563 
z
" id="DejaVuSans-36" transform="scale(0.015625)"/>
       </defs>
       <use xlink:href="#DejaVuSans-36"/>
       <use x="63.623047" xlink:href="#DejaVuSans-30"/>
       <use x="127.246094" xlink:href="#DejaVuSans-30"/>
      </g>
     </g>
    </g>
    <g id="text_17">
     <!-- Energie Consommée (kWh) -->
     <g style="fill:#262626;" transform="translate(91.209375 674.054688)rotate(-90)scale(0.2 -0.2)">
      <defs>
       <path d="M 628 4666 
L 3578 4666 
L 3578 4134 
L 1259 4134 
L 1259 2753 
L 3481 2753 
L 3481 2222 
L 1259 2222 
L 1259 531 
L 3634 531 
L 3634 0 
L 628 0 
L 628 4666 
z
" id="DejaVuSans-45" transform="scale(0.015625)"/>
       <path d="M 3513 2113 
L 3513 0 
L 2938 0 
L 2938 2094 
Q 2938 2591 2744 2837 
Q 2550 3084 2163 3084 
Q 1697 3084 1428 2787 
Q 1159 2491 1159 1978 
L 1159 0 
L 581 0 
L 581 3500 
L 1159 3500 
L 1159 2956 
Q 1366 3272 1645 3428 
Q 1925 3584 2291 3584 
Q 2894 3584 3203 3211 
Q 3513 2838 3513 2113 
z
" id="DejaVuSans-6e" transform="scale(0.015625)"/>
       <path d="M 3597 1894 
L 3597 1613 
L 953 1613 
Q 991 1019 1311 708 
Q 1631 397 2203 397 
Q 2534 397 2845 478 
Q 3156 559 3463 722 
L 3463 178 
Q 3153 47 2828 -22 
Q 2503 -91 2169 -91 
Q 1331 -91 842 396 
Q 353 884 353 1716 
Q 353 2575 817 3079 
Q 1281 3584 2069 3584 
Q 2775 3584 3186 3129 
Q 3597 2675 3597 1894 
z
M 3022 2063 
Q 3016 2534 2758 2815 
Q 2500 3097 2075 3097 
Q 1594 3097 1305 2825 
Q 1016 2553 972 2059 
L 3022 2063 
z
" id="DejaVuSans-65" transform="scale(0.015625)"/>
       <path d="M 2906 1791 
Q 2906 2416 2648 2759 
Q 2391 3103 1925 3103 
Q 1463 3103 1205 2759 
Q 947 2416 947 1791 
Q 947 1169 1205 825 
Q 1463 481 1925 481 
Q 2391 481 2648 825 
Q 2906 1169 2906 1791 
z
M 3481 434 
Q 3481 -459 3084 -895 
Q 2688 -1331 1869 -1331 
Q 1566 -1331 1297 -1286 
Q 1028 -1241 775 -1147 
L 775 -588 
Q 1028 -725 1275 -790 
Q 1522 -856 1778 -856 
Q 2344 -856 2625 -561 
Q 2906 -266 2906 331 
L 2906 616 
Q 2728 306 2450 153 
Q 2172 0 1784 0 
Q 1141 0 747 490 
Q 353 981 353 1791 
Q 353 2603 747 3093 
Q 1141 3584 1784 3584 
Q 2172 3584 2450 3431 
Q 2728 3278 2906 2969 
L 2906 3500 
L 3481 3500 
L 3481 434 
z
" id="DejaVuSans-67" transform="scale(0.015625)"/>
       <path d="M 603 3500 
L 1178 3500 
L 1178 0 
L 603 0 
L 603 3500 
z
M 603 4863 
L 1178 4863 
L 1178 4134 
L 603 4134 
L 603 4863 
z
" id="DejaVuSans-69" transform="scale(0.015625)"/>
       <path id="DejaVuSans-20" transform="scale(0.015625)"/>
       <path d="M 4122 4306 
L 4122 3641 
Q 3803 3938 3442 4084 
Q 3081 4231 2675 4231 
Q 1875 4231 1450 3742 
Q 1025 3253 1025 2328 
Q 1025 1406 1450 917 
Q 1875 428 2675 428 
Q 3081 428 3442 575 
Q 3803 722 4122 1019 
L 4122 359 
Q 3791 134 3420 21 
Q 3050 -91 2638 -91 
Q 1578 -91 968 557 
Q 359 1206 359 2328 
Q 359 3453 968 4101 
Q 1578 4750 2638 4750 
Q 3056 4750 3426 4639 
Q 3797 4528 4122 4306 
z
" id="DejaVuSans-43" transform="scale(0.015625)"/>
       <path d="M 3328 2828 
Q 3544 3216 3844 3400 
Q 4144 3584 4550 3584 
Q 5097 3584 5394 3201 
Q 5691 2819 5691 2113 
L 5691 0 
L 5113 0 
L 5113 2094 
Q 5113 2597 4934 2840 
Q 4756 3084 4391 3084 
Q 3944 3084 3684 2787 
Q 3425 2491 3425 1978 
L 3425 0 
L 2847 0 
L 2847 2094 
Q 2847 2600 2669 2842 
Q 2491 3084 2119 3084 
Q 1678 3084 1418 2786 
Q 1159 2488 1159 1978 
L 1159 0 
L 581 0 
L 581 3500 
L 1159 3500 
L 1159 2956 
Q 1356 3278 1631 3431 
Q 1906 3584 2284 3584 
Q 2666 3584 2933 3390 
Q 3200 3197 3328 2828 
z
" id="DejaVuSans-6d" transform="scale(0.015625)"/>
       <path d="M 3597 1894 
L 3597 1613 
L 953 1613 
Q 991 1019 1311 708 
Q 1631 397 2203 397 
Q 2534 397 2845 478 
Q 3156 559 3463 722 
L 3463 178 
Q 3153 47 2828 -22 
Q 2503 -91 2169 -91 
Q 1331 -91 842 396 
Q 353 884 353 1716 
Q 353 2575 817 3079 
Q 1281 3584 2069 3584 
Q 2775 3584 3186 3129 
Q 3597 2675 3597 1894 
z
M 3022 2063 
Q 3016 2534 2758 2815 
Q 2500 3097 2075 3097 
Q 1594 3097 1305 2825 
Q 1016 2553 972 2059 
L 3022 2063 
z
M 2466 5119 
L 3088 5119 
L 2070 3944 
L 1591 3944 
L 2466 5119 
z
" id="DejaVuSans-e9" transform="scale(0.015625)"/>
       <path d="M 1984 4856 
Q 1566 4138 1362 3434 
Q 1159 2731 1159 2009 
Q 1159 1288 1364 580 
Q 1569 -128 1984 -844 
L 1484 -844 
Q 1016 -109 783 600 
Q 550 1309 550 2009 
Q 550 2706 781 3412 
Q 1013 4119 1484 4856 
L 1984 4856 
z
" id="DejaVuSans-28" transform="scale(0.015625)"/>
       <path d="M 581 4863 
L 1159 4863 
L 1159 1991 
L 2875 3500 
L 3609 3500 
L 1753 1863 
L 3688 0 
L 2938 0 
L 1159 1709 
L 1159 0 
L 581 0 
L 581 4863 
z
" id="DejaVuSans-6b" transform="scale(0.015625)"/>
       <path d="M 213 4666 
L 850 4666 
L 1831 722 
L 2809 4666 
L 3519 4666 
L 4500 722 
L 5478 4666 
L 6119 4666 
L 4947 0 
L 4153 0 
L 3169 4050 
L 2175 0 
L 1381 0 
L 213 4666 
z
" id="DejaVuSans-57" transform="scale(0.015625)"/>
       <path d="M 3513 2113 
L 3513 0 
L 2938 0 
L 2938 2094 
Q 2938 2591 2744 2837 
Q 2550 3084 2163 3084 
Q 1697 3084 1428 2787 
Q 1159 2491 1159 1978 
L 1159 0 
L 581 0 
L 581 4863 
L 1159 4863 
L 1159 2956 
Q 1366 3272 1645 3428 
Q 1925 3584 2291 3584 
Q 2894 3584 3203 3211 
Q 3513 2838 3513 2113 
z
" id="DejaVuSans-68" transform="scale(0.015625)"/>
       <path d="M 513 4856 
L 1013 4856 
Q 1481 4119 1714 3412 
Q 1947 2706 1947 2009 
Q 1947 1309 1714 600 
Q 1481 -109 1013 -844 
L 513 -844 
Q 928 -128 1133 580 
Q 1338 1288 1338 2009 
Q 1338 2731 1133 3434 
Q 928 4138 513 4856 
z
" id="DejaVuSans-29" transform="scale(0.015625)"/>
      </defs>
      <use xlink:href="#DejaVuSans-45"/>
      <use x="63.183594" xlink:href="#DejaVuSans-6e"/>
      <use x="126.5625" xlink:href="#DejaVuSans-65"/>
      <use x="188.085938" xlink:href="#DejaVuSans-72"/>
      <use x="227.449219" xlink:href="#DejaVuSans-67"/>
      <use x="290.925781" xlink:href="#DejaVuSans-69"/>
      <use x="318.708984" xlink:href="#DejaVuSans-65"/>
      <use x="380.232422" xlink:href="#DejaVuSans-20"/>
      <use x="412.019531" xlink:href="#DejaVuSans-43"/>
      <use x="481.84375" xlink:href="#DejaVuSans-6f"/>
      <use x="543.025391" xlink:href="#DejaVuSans-6e"/>
      <use x="606.404297" xlink:href="#DejaVuSans-73"/>
      <use x="658.503906" xlink:href="#DejaVuSans-6f"/>
      <use x="719.685547" xlink:href="#DejaVuSans-6d"/>
      <use x="817.097656" xlink:href="#DejaVuSans-6d"/>
      <use x="914.509766" xlink:href="#DejaVuSans-e9"/>
      <use x="976.033203" xlink:href="#DejaVuSans-65"/>
      <use x="1037.556641" xlink:href="#DejaVuSans-20"/>
      <use x="1069.34375" xlink:href="#DejaVuSans-28"/>
      <use x="1108.357422" xlink:href="#DejaVuSans-6b"/>
      <use x="1166.267578" xlink:href="#DejaVuSans-57"/>
      <use x="1265.144531" xlink:href="#DejaVuSans-68"/>
      <use x="1328.523438" xlink:href="#DejaVuSans-29"/>
     </g>
    </g>
   </g>
   <g id="PolyCollection_1">
    <defs>
     <path d="M 173.045455 -172.566547 
L 173.045455 -174.464325 
L 175.135864 -177.307063 
L 177.226274 -180.145582 
L 179.316683 -182.979639 
L 181.407093 -185.808847 
L 183.497502 -188.632914 
L 185.587912 -191.451598 
L 187.678322 -194.26456 
L 189.768731 -197.071605 
L 191.859141 -199.872345 
L 193.94955 -202.666636 
L 196.03996 -205.454137 
L 198.13037 -208.234655 
L 200.220779 -211.007898 
L 202.311189 -213.773624 
L 204.401598 -216.53164 
L 206.492008 -219.281702 
L 208.582418 -222.023569 
L 210.672827 -224.757094 
L 212.763237 -227.482035 
L 214.853646 -230.198247 
L 216.944056 -232.905487 
L 219.034466 -235.60361 
L 221.124875 -238.292374 
L 223.215285 -240.97168 
L 225.305694 -243.641336 
L 227.396104 -246.301196 
L 229.486513 -248.951162 
L 231.576923 -251.591042 
L 233.667333 -254.220688 
L 235.757742 -256.840054 
L 237.848152 -259.448944 
L 239.938561 -262.047263 
L 242.028971 -264.634912 
L 244.119381 -267.211746 
L 246.20979 -269.777669 
L 248.3002 -272.332584 
L 250.390609 -274.876441 
L 252.481019 -277.409096 
L 254.571429 -279.930548 
L 256.661838 -282.440652 
L 258.752248 -284.939359 
L 260.842657 -287.426622 
L 262.933067 -289.902294 
L 265.023477 -292.366423 
L 267.113886 -294.818817 
L 269.204296 -297.259524 
L 271.294705 -299.688445 
L 273.385115 -302.105583 
L 275.475524 -304.510887 
L 277.565934 -306.904261 
L 279.656344 -309.285657 
L 281.746753 -311.655074 
L 283.837163 -314.012464 
L 285.927572 -316.357827 
L 288.017982 -318.691115 
L 290.108392 -321.012279 
L 292.198801 -323.32127 
L 294.289211 -325.618137 
L 296.37962 -327.902783 
L 298.47003 -330.175257 
L 300.56044 -332.435461 
L 302.650849 -334.683444 
L 304.741259 -336.919158 
L 306.831668 -339.142554 
L 308.922078 -341.35368 
L 311.012488 -343.55244 
L 313.102897 -345.738882 
L 315.193307 -347.913054 
L 317.283716 -350.07486 
L 319.374126 -352.224348 
L 321.464535 -354.361469 
L 323.554945 -356.486224 
L 325.645355 -358.598613 
L 327.735764 -360.698635 
L 329.826174 -362.786339 
L 331.916583 -364.861628 
L 334.006993 -366.924599 
L 336.097403 -368.975155 
L 338.187812 -371.013344 
L 340.278222 -373.039167 
L 342.368631 -375.052624 
L 344.459041 -377.053762 
L 346.549451 -379.042486 
L 348.63986 -381.018892 
L 350.73027 -382.982979 
L 352.820679 -384.934701 
L 354.911089 -386.874104 
L 357.001499 -388.801189 
L 359.091908 -390.715956 
L 361.182318 -392.618454 
L 363.272727 -394.508682 
L 365.363137 -396.38669 
L 367.453546 -398.252428 
L 369.543956 -400.105944 
L 371.634366 -401.94724 
L 373.724775 -403.776315 
L 375.815185 -405.593217 
L 377.905594 -407.397947 
L 379.996004 -409.190553 
L 382.086414 -410.971084 
L 384.176823 -412.739538 
L 386.267233 -414.495918 
L 388.357642 -416.240319 
L 390.448052 -417.972692 
L 392.538462 -419.693136 
L 394.628871 -421.40165 
L 396.719281 -423.098331 
L 398.80969 -424.783179 
L 400.9001 -426.456242 
L 402.990509 -428.117521 
L 405.080919 -429.767112 
L 407.171329 -431.405112 
L 409.261738 -433.031522 
L 411.352148 -434.646342 
L 413.442557 -436.249717 
L 415.532967 -437.841694 
L 417.623377 -439.422373 
L 419.713786 -440.991752 
L 421.804196 -442.549928 
L 423.894605 -444.096999 
L 425.985015 -445.633061 
L 428.075425 -447.158163 
L 430.165834 -448.672401 
L 432.256244 -450.175874 
L 434.346653 -451.668678 
L 436.437063 -453.150909 
L 438.527473 -454.622714 
L 440.617882 -456.084189 
L 442.708292 -457.535432 
L 444.798701 -458.976539 
L 446.889111 -460.407704 
L 448.97952 -461.829073 
L 451.06993 -463.240743 
L 453.16034 -464.642859 
L 455.250749 -466.035567 
L 457.341159 -467.419061 
L 459.431568 -468.793486 
L 461.521978 -470.158987 
L 463.612388 -471.51576 
L 465.702797 -472.863997 
L 467.793207 -474.203844 
L 469.883616 -475.535544 
L 471.974026 -476.859291 
L 474.064436 -478.175278 
L 476.154845 -479.483748 
L 478.245255 -480.784896 
L 480.335664 -482.078963 
L 482.426074 -483.366192 
L 484.516484 -484.646777 
L 486.606893 -485.921009 
L 488.697303 -487.189179 
L 490.787712 -488.451482 
L 492.878122 -489.708207 
L 494.968531 -490.959646 
L 497.058941 -492.206041 
L 499.149351 -493.447636 
L 501.23976 -494.684817 
L 503.33017 -495.917828 
L 505.420579 -497.146958 
L 507.510989 -498.372501 
L 509.601399 -499.594794 
L 511.691808 -500.814177 
L 513.782218 -502.030893 
L 515.872627 -503.245281 
L 517.963037 -504.457681 
L 520.053447 -505.668432 
L 522.143856 -506.877825 
L 524.234266 -508.086199 
L 526.324675 -509.293895 
L 528.415085 -510.501203 
L 530.505495 -511.708511 
L 532.595904 -512.916109 
L 534.686314 -514.12429 
L 536.776723 -515.333392 
L 538.867133 -516.543755 
L 540.957542 -517.755718 
L 543.047952 -518.969622 
L 545.138362 -520.185756 
L 547.228771 -521.404411 
L 549.319181 -522.625977 
L 551.40959 -523.850695 
L 553.5 -525.078904 
L 555.59041 -526.310896 
L 557.680819 -527.546962 
L 559.771229 -528.787441 
L 561.861638 -530.032576 
L 563.952048 -531.282608 
L 566.042458 -532.53783 
L 568.132867 -533.798581 
L 570.223277 -535.065053 
L 572.313686 -536.33754 
L 574.404096 -537.616282 
L 576.494505 -538.901474 
L 578.584915 -540.193456 
L 580.675325 -541.492421 
L 582.765734 -542.798564 
L 584.856144 -544.112126 
L 586.946553 -545.433303 
L 589.036963 -546.762335 
L 591.127373 -548.09937 
L 593.217782 -549.444649 
L 595.308192 -550.798366 
L 597.398601 -552.160667 
L 599.489011 -553.531745 
L 601.579421 -554.911699 
L 603.66983 -556.30077 
L 605.76024 -557.699103 
L 607.850649 -559.106845 
L 609.941059 -560.52414 
L 612.031469 -561.951135 
L 614.121878 -563.387925 
L 616.212288 -564.834658 
L 618.302697 -566.291429 
L 620.393107 -567.758384 
L 622.483516 -569.235669 
L 624.573926 -570.723332 
L 626.664336 -572.22147 
L 628.754745 -573.730229 
L 630.845155 -575.249706 
L 632.935564 -576.779948 
L 635.025974 -578.321005 
L 637.116384 -579.873071 
L 639.206793 -581.436097 
L 641.297203 -583.010228 
L 643.387612 -584.595562 
L 645.478022 -586.192099 
L 647.568432 -587.799935 
L 649.658841 -589.419119 
L 651.749251 -591.0497 
L 653.83966 -592.691726 
L 655.93007 -594.345294 
L 658.02048 -596.010403 
L 660.110889 -597.687104 
L 662.201299 -599.375443 
L 664.291708 -601.07547 
L 666.382118 -602.787185 
L 668.472527 -604.510732 
L 670.562937 -606.246016 
L 672.653347 -607.993133 
L 674.743756 -609.752082 
L 676.834166 -611.522962 
L 678.924575 -613.305772 
L 681.014985 -615.100511 
L 683.105395 -616.907181 
L 685.195804 -618.725781 
L 687.286214 -620.556407 
L 689.376623 -622.399061 
L 691.467033 -624.253742 
L 693.557443 -626.120498 
L 695.647852 -627.999281 
L 697.738262 -629.89014 
L 699.828671 -631.793123 
L 701.919081 -633.70823 
L 704.009491 -635.635412 
L 706.0999 -637.574767 
L 708.19031 -639.526245 
L 710.280719 -641.489896 
L 712.371129 -643.465672 
L 714.461538 -645.453571 
L 716.551948 -647.453643 
L 718.642358 -649.465935 
L 720.732767 -651.490401 
L 722.823177 -653.527038 
L 724.913586 -655.5758 
L 727.003996 -657.636783 
L 729.094406 -659.709889 
L 731.184815 -661.795217 
L 733.275225 -663.892717 
L 735.365634 -666.00239 
L 737.456044 -668.124283 
L 739.546454 -670.258301 
L 741.636863 -672.404491 
L 743.727273 -674.562854 
L 745.817682 -676.73334 
L 747.908092 -678.916 
L 749.998501 -681.110783 
L 752.088911 -683.31769 
L 754.179321 -685.536721 
L 756.26973 -687.767876 
L 758.36014 -690.011155 
L 760.450549 -692.26651 
L 762.540959 -694.533891 
L 764.631369 -696.813349 
L 766.721778 -699.104833 
L 768.812188 -701.408295 
L 770.902597 -703.723736 
L 772.993007 -706.051108 
L 775.083417 -708.390457 
L 777.173826 -710.741689 
L 779.264236 -713.104801 
L 781.354645 -715.479747 
L 783.445055 -717.866477 
L 785.535465 -720.265041 
L 787.625874 -722.675291 
L 789.716284 -725.097278 
L 791.806693 -727.530856 
L 793.897103 -729.976024 
L 795.987512 -732.432733 
L 798.077922 -734.900937 
L 800.168332 -737.380586 
L 802.258741 -739.871582 
L 804.349151 -742.373927 
L 806.43956 -744.887523 
L 808.52997 -747.412321 
L 810.62038 -749.948177 
L 812.710789 -752.495089 
L 814.801199 -755.052913 
L 816.891608 -757.6216 
L 818.982018 -760.201005 
L 821.072428 -762.791079 
L 823.162837 -765.391725 
L 825.253247 -768.002749 
L 827.343656 -770.624152 
L 829.434066 -773.255738 
L 831.524476 -775.897412 
L 833.614885 -778.549027 
L 835.705295 -781.210487 
L 837.795704 -783.881598 
L 839.886114 -786.562263 
L 841.976523 -789.252287 
L 844.066933 -791.951525 
L 846.157343 -794.659784 
L 848.247752 -797.376918 
L 850.338162 -800.102683 
L 852.428571 -802.836936 
L 854.518981 -805.579481 
L 856.609391 -808.330125 
L 858.6998 -811.088674 
L 860.79021 -813.854886 
L 862.880619 -816.628566 
L 864.971029 -819.409423 
L 867.061439 -822.197215 
L 869.151848 -824.991748 
L 871.242258 -827.792731 
L 873.332667 -830.599921 
L 875.423077 -833.413028 
L 877.513487 -836.23181 
L 879.603896 -839.055974 
L 881.694306 -841.88523 
L 883.784715 -844.719287 
L 885.875125 -847.557855 
L 887.965534 -850.400593 
L 890.055944 -853.24721 
L 892.146354 -856.097417 
L 894.236763 -858.950873 
L 896.327173 -861.807238 
L 898.417582 -864.666174 
L 900.507992 -867.527389 
L 902.598402 -870.390495 
L 904.688811 -873.25525 
L 906.779221 -876.121218 
L 908.86963 -878.988107 
L 910.96004 -881.855578 
L 913.05045 -884.723243 
L 915.140859 -887.590763 
L 917.231269 -890.457797 
L 919.321678 -893.324056 
L 921.412088 -896.189151 
L 923.502498 -899.052742 
L 925.592907 -901.914491 
L 927.683317 -904.774057 
L 929.773726 -907.631101 
L 931.864136 -910.485333 
L 933.954545 -913.336364 
L 933.954545 -418.857227 
L 933.954545 -418.857227 
L 931.864136 -417.906883 
L 929.773726 -416.955473 
L 927.683317 -416.003125 
L 925.592907 -415.049936 
L 923.502498 -414.09602 
L 921.412088 -413.141489 
L 919.321678 -412.186458 
L 917.231269 -411.231038 
L 915.140859 -410.27536 
L 913.05045 -409.31952 
L 910.96004 -408.363632 
L 908.86963 -407.407808 
L 906.779221 -406.452178 
L 904.688811 -405.496856 
L 902.598402 -404.541937 
L 900.507992 -403.587569 
L 898.417582 -402.63383 
L 896.327173 -401.680852 
L 894.236763 -400.72873 
L 892.146354 -399.777578 
L 890.055944 -398.827509 
L 887.965534 -397.878637 
L 885.875125 -396.931057 
L 883.784715 -395.984868 
L 881.694306 -395.040182 
L 879.603896 -394.097097 
L 877.513487 -393.155709 
L 875.423077 -392.216115 
L 873.332667 -391.278413 
L 871.242258 -390.342683 
L 869.151848 -389.409022 
L 867.061439 -388.477511 
L 864.971029 -387.548247 
L 862.880619 -386.621294 
L 860.79021 -385.696734 
L 858.6998 -384.774664 
L 856.609391 -383.855148 
L 854.518981 -382.938266 
L 852.428571 -382.024084 
L 850.338162 -381.112667 
L 848.247752 -380.204078 
L 846.157343 -379.298367 
L 844.066933 -378.395614 
L 841.976523 -377.495868 
L 839.886114 -376.599193 
L 837.795704 -375.705639 
L 835.705295 -374.815268 
L 833.614885 -373.928115 
L 831.524476 -373.044243 
L 829.434066 -372.163685 
L 827.343656 -371.28649 
L 825.253247 -370.412689 
L 823.162837 -369.542348 
L 821.072428 -368.675465 
L 818.982018 -367.812108 
L 816.891608 -366.952306 
L 814.801199 -366.096077 
L 812.710789 -365.243469 
L 810.62038 -364.394498 
L 808.52997 -363.549213 
L 806.43956 -362.707613 
L 804.349151 -361.869748 
L 802.258741 -361.035633 
L 800.168332 -360.205301 
L 798.077922 -359.378751 
L 795.987512 -358.556017 
L 793.897103 -357.737114 
L 791.806693 -356.922058 
L 789.716284 -356.110865 
L 787.625874 -355.303536 
L 785.535465 -354.500119 
L 783.445055 -353.700598 
L 781.354645 -352.905021 
L 779.264236 -352.113373 
L 777.173826 -351.325669 
L 775.083417 -350.541925 
L 772.993007 -349.762142 
L 770.902597 -348.986351 
L 768.812188 -348.214538 
L 766.721778 -347.446717 
L 764.631369 -346.682889 
L 762.540959 -345.92307 
L 760.450549 -345.167276 
L 758.36014 -344.415491 
L 756.26973 -343.667731 
L 754.179321 -342.924013 
L 752.088911 -342.184336 
L 749.998501 -341.4487 
L 747.908092 -340.717106 
L 745.817682 -339.989553 
L 743.727273 -339.266057 
L 741.636863 -338.546603 
L 739.546454 -337.831206 
L 737.456044 -337.119867 
L 735.365634 -336.412569 
L 733.275225 -335.709345 
L 731.184815 -335.010178 
L 729.094406 -334.315069 
L 727.003996 -333.624033 
L 724.913586 -332.937039 
L 722.823177 -332.254119 
L 720.732767 -331.575239 
L 718.642358 -330.900418 
L 716.551948 -330.229653 
L 714.461538 -329.562963 
L 712.371129 -328.90033 
L 710.280719 -328.241738 
L 708.19031 -327.587188 
L 706.0999 -326.936695 
L 704.009491 -326.290243 
L 701.919081 -325.647849 
L 699.828671 -325.00948 
L 697.738262 -324.375152 
L 695.647852 -323.744866 
L 693.557443 -323.118605 
L 691.467033 -322.496353 
L 689.376623 -321.878126 
L 687.286214 -321.263908 
L 685.195804 -320.653699 
L 683.105395 -320.047499 
L 681.014985 -319.445276 
L 678.924575 -318.84703 
L 676.834166 -318.25276 
L 674.743756 -317.662467 
L 672.653347 -317.07615 
L 670.562937 -316.493778 
L 668.472527 -315.91535 
L 666.382118 -315.340834 
L 664.291708 -314.770263 
L 662.201299 -314.203587 
L 660.110889 -313.640807 
L 658.02048 -313.081907 
L 655.93007 -312.52687 
L 653.83966 -311.975681 
L 651.749251 -311.428339 
L 649.658841 -310.884812 
L 647.568432 -310.345084 
L 645.478022 -309.809139 
L 643.387612 -309.27696 
L 641.297203 -308.748515 
L 639.206793 -308.223805 
L 637.116384 -307.702796 
L 635.025974 -307.185441 
L 632.935564 -306.671755 
L 630.845155 -306.161674 
L 628.754745 -305.655182 
L 626.664336 -305.152263 
L 624.573926 -304.652883 
L 622.483516 -304.156995 
L 620.393107 -303.664567 
L 618.302697 -303.175582 
L 616.212288 -302.689992 
L 614.121878 -302.207748 
L 612.031469 -301.728817 
L 609.941059 -301.253152 
L 607.850649 -300.780721 
L 605.76024 -300.311473 
L 603.66983 -299.845362 
L 601.579421 -299.382339 
L 599.489011 -298.922354 
L 597.398601 -298.465328 
L 595.308192 -298.011228 
L 593.217782 -297.559989 
L 591.127373 -297.111562 
L 589.036963 -296.665884 
L 586.946553 -296.222873 
L 584.856144 -295.782481 
L 582.765734 -295.344627 
L 580.675325 -294.909246 
L 578.584915 -294.476258 
L 576.494505 -294.045597 
L 574.404096 -293.6172 
L 572.313686 -293.190952 
L 570.223277 -292.76679 
L 568.132867 -292.344633 
L 566.042458 -291.924383 
L 563.952048 -291.505975 
L 561.861638 -291.089298 
L 559.771229 -290.674253 
L 557.680819 -290.26076 
L 555.59041 -289.848738 
L 553.5 -289.438074 
L 551.40959 -289.028671 
L 549.319181 -288.620431 
L 547.228771 -288.213243 
L 545.138362 -287.807024 
L 543.047952 -287.401646 
L 540.957542 -286.997012 
L 538.867133 -286.593024 
L 536.776723 -286.18957 
L 534.686314 -285.786536 
L 532.595904 -285.383809 
L 530.505495 -284.981276 
L 528.415085 -284.57884 
L 526.324675 -284.176404 
L 524.234266 -283.773839 
L 522.143856 -283.371047 
L 520.053447 -282.967916 
L 517.963037 -282.564333 
L 515.872627 -282.160199 
L 513.782218 -281.755403 
L 511.691808 -281.349831 
L 509.601399 -280.94337 
L 507.510989 -280.535939 
L 505.420579 -280.127425 
L 503.33017 -279.717715 
L 501.23976 -279.306711 
L 499.149351 -278.894318 
L 497.058941 -278.480453 
L 494.968531 -278.064988 
L 492.878122 -277.647841 
L 490.787712 -277.228933 
L 488.697303 -276.808166 
L 486.606893 -276.385442 
L 484.516484 -275.960698 
L 482.426074 -275.533836 
L 480.335664 -275.10476 
L 478.245255 -274.673404 
L 476.154845 -274.239688 
L 474.064436 -273.803532 
L 471.974026 -273.364869 
L 469.883616 -272.92362 
L 467.793207 -272.47972 
L 465.702797 -272.033105 
L 463.612388 -271.583692 
L 461.521978 -271.131435 
L 459.431568 -270.676268 
L 457.341159 -270.218126 
L 455.250749 -269.756961 
L 453.16034 -269.292725 
L 451.06993 -268.825353 
L 448.97952 -268.354797 
L 446.889111 -267.881007 
L 444.798701 -267.403952 
L 442.708292 -266.923583 
L 440.617882 -266.439836 
L 438.527473 -265.952677 
L 436.437063 -265.462076 
L 434.346653 -264.967998 
L 432.256244 -264.470397 
L 430.165834 -263.96924 
L 428.075425 -263.464493 
L 425.985015 -262.956126 
L 423.894605 -262.444105 
L 421.804196 -261.928415 
L 419.713786 -261.409023 
L 417.623377 -260.885897 
L 415.532967 -260.359004 
L 413.442557 -259.828345 
L 411.352148 -259.293886 
L 409.261738 -258.755613 
L 407.171329 -258.213477 
L 405.080919 -257.667476 
L 402.990509 -257.117613 
L 400.9001 -256.563853 
L 398.80969 -256.006165 
L 396.719281 -255.444549 
L 394.628871 -254.878989 
L 392.538462 -254.309485 
L 390.448052 -253.736003 
L 388.357642 -253.158545 
L 386.267233 -252.577078 
L 384.176823 -251.991619 
L 382.086414 -251.402134 
L 379.996004 -250.808623 
L 377.905594 -250.211088 
L 375.815185 -249.609512 
L 373.724775 -249.003877 
L 371.634366 -248.394186 
L 369.543956 -247.780421 
L 367.453546 -247.162582 
L 365.363137 -246.540669 
L 363.272727 -245.914667 
L 361.182318 -245.28459 
L 359.091908 -244.650425 
L 357.001499 -244.012169 
L 354.911089 -243.369807 
L 352.820679 -242.723339 
L 350.73027 -242.072766 
L 348.63986 -241.41807 
L 346.549451 -240.759268 
L 344.459041 -240.09636 
L 342.368631 -239.429314 
L 340.278222 -238.758162 
L 338.187812 -238.082887 
L 336.097403 -237.403491 
L 334.006993 -236.719972 
L 331.916583 -236.032315 
L 329.826174 -235.340552 
L 327.735764 -234.644651 
L 325.645355 -233.944643 
L 323.554945 -233.240514 
L 321.464535 -232.532262 
L 319.374126 -231.819888 
L 317.283716 -231.103392 
L 315.193307 -230.38279 
L 313.102897 -229.658066 
L 311.012488 -228.929252 
L 308.922078 -228.196332 
L 306.831668 -227.45929 
L 304.741259 -226.718158 
L 302.650849 -225.972921 
L 300.56044 -225.223593 
L 298.47003 -224.470191 
L 296.37962 -223.7127 
L 294.289211 -222.951151 
L 292.198801 -222.185529 
L 290.108392 -221.415865 
L 288.017982 -220.642144 
L 285.927572 -219.864382 
L 283.837163 -219.082594 
L 281.746753 -218.296797 
L 279.656344 -217.506991 
L 277.565934 -216.713193 
L 275.475524 -215.915401 
L 273.385115 -215.113633 
L 271.294705 -214.307921 
L 269.204296 -213.49828 
L 267.113886 -212.684712 
L 265.023477 -211.867247 
L 262.933067 -211.04587 
L 260.842657 -210.220646 
L 258.752248 -209.391559 
L 256.661838 -208.558656 
L 254.571429 -207.721955 
L 252.481019 -206.881471 
L 250.390609 -206.037253 
L 248.3002 -205.1893 
L 246.20979 -204.337662 
L 244.119381 -203.482355 
L 242.028971 -202.62341 
L 239.938561 -201.76086 
L 237.848152 -200.894754 
L 235.757742 -200.025124 
L 233.667333 -199.152002 
L 231.576923 -198.275453 
L 229.486513 -197.395493 
L 227.396104 -196.512171 
L 225.305694 -195.625551 
L 223.215285 -194.735666 
L 221.124875 -193.842564 
L 219.034466 -192.946309 
L 216.944056 -192.046935 
L 214.853646 -191.144521 
L 212.763237 -190.239117 
L 210.672827 -189.330804 
L 208.582418 -188.419629 
L 206.492008 -187.505673 
L 204.401598 -186.588986 
L 202.311189 -185.669647 
L 200.220779 -184.747738 
L 198.13037 -183.823324 
L 196.03996 -182.896485 
L 193.94955 -181.967318 
L 191.859141 -181.035887 
L 189.768731 -180.102307 
L 187.678322 -179.166626 
L 185.587912 -178.228972 
L 183.497502 -177.28941 
L 181.407093 -176.348055 
L 179.316683 -175.404986 
L 177.226274 -174.4603 
L 175.135864 -173.514127 
L 173.045455 -172.566547 
z
" id="m778af01650" style="stroke:#dbddd0;stroke-opacity:0.9;"/>
    </defs>
    <g clip-path="url(#p754428202f)">
     <use style="fill:#dbddd0;fill-opacity:0.9;stroke:#dbddd0;stroke-opacity:0.9;" x="0" xlink:href="#m778af01650" y="1080"/>
    </g>
   </g>
   <g id="PolyCollection_2">
    <defs>
     <path d="M 173.045455 -172.063636 
L 173.045455 -172.566547 
L 175.135864 -173.514127 
L 177.226274 -174.4603 
L 179.316683 -175.404986 
L 181.407093 -176.348055 
L 183.497502 -177.28941 
L 185.587912 -178.228972 
L 187.678322 -179.166626 
L 189.768731 -180.102307 
L 191.859141 -181.035887 
L 193.94955 -181.967318 
L 196.03996 -182.896485 
L 198.13037 -183.823324 
L 200.220779 -184.747738 
L 202.311189 -185.669647 
L 204.401598 -186.588986 
L 206.492008 -187.505673 
L 208.582418 -188.419629 
L 210.672827 -189.330804 
L 212.763237 -190.239117 
L 214.853646 -191.144521 
L 216.944056 -192.046935 
L 219.034466 -192.946309 
L 221.124875 -193.842564 
L 223.215285 -194.735666 
L 225.305694 -195.625551 
L 227.396104 -196.512171 
L 229.486513 -197.395493 
L 231.576923 -198.275453 
L 233.667333 -199.152002 
L 235.757742 -200.025124 
L 237.848152 -200.894754 
L 239.938561 -201.76086 
L 242.028971 -202.62341 
L 244.119381 -203.482355 
L 246.20979 -204.337662 
L 248.3002 -205.1893 
L 250.390609 -206.037253 
L 252.481019 -206.881471 
L 254.571429 -207.721955 
L 256.661838 -208.558656 
L 258.752248 -209.391559 
L 260.842657 -210.220646 
L 262.933067 -211.04587 
L 265.023477 -211.867247 
L 267.113886 -212.684712 
L 269.204296 -213.49828 
L 271.294705 -214.307921 
L 273.385115 -215.113633 
L 275.475524 -215.915401 
L 277.565934 -216.713193 
L 279.656344 -217.506991 
L 281.746753 -218.296797 
L 283.837163 -219.082594 
L 285.927572 -219.864382 
L 288.017982 -220.642144 
L 290.108392 -221.415865 
L 292.198801 -222.185529 
L 294.289211 -222.951151 
L 296.37962 -223.7127 
L 298.47003 -224.470191 
L 300.56044 -225.223593 
L 302.650849 -225.972921 
L 304.741259 -226.718158 
L 306.831668 -227.45929 
L 308.922078 -228.196332 
L 311.012488 -228.929252 
L 313.102897 -229.658066 
L 315.193307 -230.38279 
L 317.283716 -231.103392 
L 319.374126 -231.819888 
L 321.464535 -232.532262 
L 323.554945 -233.240514 
L 325.645355 -233.944643 
L 327.735764 -234.644651 
L 329.826174 -235.340552 
L 331.916583 -236.032315 
L 334.006993 -236.719972 
L 336.097403 -237.403491 
L 338.187812 -238.082887 
L 340.278222 -238.758162 
L 342.368631 -239.429314 
L 344.459041 -240.09636 
L 346.549451 -240.759268 
L 348.63986 -241.41807 
L 350.73027 -242.072766 
L 352.820679 -242.723339 
L 354.911089 -243.369807 
L 357.001499 -244.012169 
L 359.091908 -244.650425 
L 361.182318 -245.28459 
L 363.272727 -245.914667 
L 365.363137 -246.540669 
L 367.453546 -247.162582 
L 369.543956 -247.780421 
L 371.634366 -248.394186 
L 373.724775 -249.003877 
L 375.815185 -249.609512 
L 377.905594 -250.211088 
L 379.996004 -250.808623 
L 382.086414 -251.402134 
L 384.176823 -251.991619 
L 386.267233 -252.577078 
L 388.357642 -253.158545 
L 390.448052 -253.736003 
L 392.538462 -254.309485 
L 394.628871 -254.878989 
L 396.719281 -255.444549 
L 398.80969 -256.006165 
L 400.9001 -256.563853 
L 402.990509 -257.117613 
L 405.080919 -257.667476 
L 407.171329 -258.213477 
L 409.261738 -258.755613 
L 411.352148 -259.293886 
L 413.442557 -259.828345 
L 415.532967 -260.359004 
L 417.623377 -260.885897 
L 419.713786 -261.409023 
L 421.804196 -261.928415 
L 423.894605 -262.444105 
L 425.985015 -262.956126 
L 428.075425 -263.464493 
L 430.165834 -263.96924 
L 432.256244 -264.470397 
L 434.346653 -264.967998 
L 436.437063 -265.462076 
L 438.527473 -265.952677 
L 440.617882 -266.439836 
L 442.708292 -266.923583 
L 444.798701 -267.403952 
L 446.889111 -267.881007 
L 448.97952 -268.354797 
L 451.06993 -268.825353 
L 453.16034 -269.292725 
L 455.250749 -269.756961 
L 457.341159 -270.218126 
L 459.431568 -270.676268 
L 461.521978 -271.131435 
L 463.612388 -271.583692 
L 465.702797 -272.033105 
L 467.793207 -272.47972 
L 469.883616 -272.92362 
L 471.974026 -273.364869 
L 474.064436 -273.803532 
L 476.154845 -274.239688 
L 478.245255 -274.673404 
L 480.335664 -275.10476 
L 482.426074 -275.533836 
L 484.516484 -275.960698 
L 486.606893 -276.385442 
L 488.697303 -276.808166 
L 490.787712 -277.228933 
L 492.878122 -277.647841 
L 494.968531 -278.064988 
L 497.058941 -278.480453 
L 499.149351 -278.894318 
L 501.23976 -279.306711 
L 503.33017 -279.717715 
L 505.420579 -280.127425 
L 507.510989 -280.535939 
L 509.601399 -280.94337 
L 511.691808 -281.349831 
L 513.782218 -281.755403 
L 515.872627 -282.160199 
L 517.963037 -282.564333 
L 520.053447 -282.967916 
L 522.143856 -283.371047 
L 524.234266 -283.773839 
L 526.324675 -284.176404 
L 528.415085 -284.57884 
L 530.505495 -284.981276 
L 532.595904 -285.383809 
L 534.686314 -285.786536 
L 536.776723 -286.18957 
L 538.867133 -286.593024 
L 540.957542 -286.997012 
L 543.047952 -287.401646 
L 545.138362 -287.807024 
L 547.228771 -288.213243 
L 549.319181 -288.620431 
L 551.40959 -289.028671 
L 553.5 -289.438074 
L 555.59041 -289.848738 
L 557.680819 -290.26076 
L 559.771229 -290.674253 
L 561.861638 -291.089298 
L 563.952048 -291.505975 
L 566.042458 -291.924383 
L 568.132867 -292.344633 
L 570.223277 -292.76679 
L 572.313686 -293.190952 
L 574.404096 -293.6172 
L 576.494505 -294.045597 
L 578.584915 -294.476258 
L 580.675325 -294.909246 
L 582.765734 -295.344627 
L 584.856144 -295.782481 
L 586.946553 -296.222873 
L 589.036963 -296.665884 
L 591.127373 -297.111562 
L 593.217782 -297.559989 
L 595.308192 -298.011228 
L 597.398601 -298.465328 
L 599.489011 -298.922354 
L 601.579421 -299.382339 
L 603.66983 -299.845362 
L 605.76024 -300.311473 
L 607.850649 -300.780721 
L 609.941059 -301.253152 
L 612.031469 -301.728817 
L 614.121878 -302.207748 
L 616.212288 -302.689992 
L 618.302697 -303.175582 
L 620.393107 -303.664567 
L 622.483516 -304.156995 
L 624.573926 -304.652883 
L 626.664336 -305.152263 
L 628.754745 -305.655182 
L 630.845155 -306.161674 
L 632.935564 -306.671755 
L 635.025974 -307.185441 
L 637.116384 -307.702796 
L 639.206793 -308.223805 
L 641.297203 -308.748515 
L 643.387612 -309.27696 
L 645.478022 -309.809139 
L 647.568432 -310.345084 
L 649.658841 -310.884812 
L 651.749251 -311.428339 
L 653.83966 -311.975681 
L 655.93007 -312.52687 
L 658.02048 -313.081907 
L 660.110889 -313.640807 
L 662.201299 -314.203587 
L 664.291708 -314.770263 
L 666.382118 -315.340834 
L 668.472527 -315.91535 
L 670.562937 -316.493778 
L 672.653347 -317.07615 
L 674.743756 -317.662467 
L 676.834166 -318.25276 
L 678.924575 -318.84703 
L 681.014985 -319.445276 
L 683.105395 -320.047499 
L 685.195804 -320.653699 
L 687.286214 -321.263908 
L 689.376623 -321.878126 
L 691.467033 -322.496353 
L 693.557443 -323.118605 
L 695.647852 -323.744866 
L 697.738262 -324.375152 
L 699.828671 -325.00948 
L 701.919081 -325.647849 
L 704.009491 -326.290243 
L 706.0999 -326.936695 
L 708.19031 -327.587188 
L 710.280719 -328.241738 
L 712.371129 -328.90033 
L 714.461538 -329.562963 
L 716.551948 -330.229653 
L 718.642358 -330.900418 
L 720.732767 -331.575239 
L 722.823177 -332.254119 
L 724.913586 -332.937039 
L 727.003996 -333.624033 
L 729.094406 -334.315069 
L 731.184815 -335.010178 
L 733.275225 -335.709345 
L 735.365634 -336.412569 
L 737.456044 -337.119867 
L 739.546454 -337.831206 
L 741.636863 -338.546603 
L 743.727273 -339.266057 
L 745.817682 -339.989553 
L 747.908092 -340.717106 
L 749.998501 -341.4487 
L 752.088911 -342.184336 
L 754.179321 -342.924013 
L 756.26973 -343.667731 
L 758.36014 -344.415491 
L 760.450549 -345.167276 
L 762.540959 -345.92307 
L 764.631369 -346.682889 
L 766.721778 -347.446717 
L 768.812188 -348.214538 
L 770.902597 -348.986351 
L 772.993007 -349.762142 
L 775.083417 -350.541925 
L 777.173826 -351.325669 
L 779.264236 -352.113373 
L 781.354645 -352.905021 
L 783.445055 -353.700598 
L 785.535465 -354.500119 
L 787.625874 -355.303536 
L 789.716284 -356.110865 
L 791.806693 -356.922058 
L 793.897103 -357.737114 
L 795.987512 -358.556017 
L 798.077922 -359.378751 
L 800.168332 -360.205301 
L 802.258741 -361.035633 
L 804.349151 -361.869748 
L 806.43956 -362.707613 
L 808.52997 -363.549213 
L 810.62038 -364.394498 
L 812.710789 -365.243469 
L 814.801199 -366.096077 
L 816.891608 -366.952306 
L 818.982018 -367.812108 
L 821.072428 -368.675465 
L 823.162837 -369.542348 
L 825.253247 -370.412689 
L 827.343656 -371.28649 
L 829.434066 -372.163685 
L 831.524476 -373.044243 
L 833.614885 -373.928115 
L 835.705295 -374.815268 
L 837.795704 -375.705639 
L 839.886114 -376.599193 
L 841.976523 -377.495868 
L 844.066933 -378.395614 
L 846.157343 -379.298367 
L 848.247752 -380.204078 
L 850.338162 -381.112667 
L 852.428571 -382.024084 
L 854.518981 -382.938266 
L 856.609391 -383.855148 
L 858.6998 -384.774664 
L 860.79021 -385.696734 
L 862.880619 -386.621294 
L 864.971029 -387.548247 
L 867.061439 -388.477511 
L 869.151848 -389.409022 
L 871.242258 -390.342683 
L 873.332667 -391.278413 
L 875.423077 -392.216115 
L 877.513487 -393.155709 
L 879.603896 -394.097097 
L 881.694306 -395.040182 
L 883.784715 -395.984868 
L 885.875125 -396.931057 
L 887.965534 -397.878637 
L 890.055944 -398.827509 
L 892.146354 -399.777578 
L 894.236763 -400.72873 
L 896.327173 -401.680852 
L 898.417582 -402.63383 
L 900.507992 -403.587569 
L 902.598402 -404.541937 
L 904.688811 -405.496856 
L 906.779221 -406.452178 
L 908.86963 -407.407808 
L 910.96004 -408.363632 
L 913.05045 -409.31952 
L 915.140859 -410.27536 
L 917.231269 -411.231038 
L 919.321678 -412.186458 
L 921.412088 -413.141489 
L 923.502498 -414.09602 
L 925.592907 -415.049936 
L 927.683317 -416.003125 
L 929.773726 -416.955473 
L 931.864136 -417.906883 
L 933.954545 -418.857227 
L 933.954545 -287.820256 
L 933.954545 -287.820256 
L 931.864136 -287.373594 
L 929.773726 -286.926431 
L 927.683317 -286.478828 
L 925.592907 -286.030829 
L 923.502498 -285.582488 
L 921.412088 -285.133859 
L 919.321678 -284.684994 
L 917.231269 -284.235947 
L 915.140859 -283.786778 
L 913.05045 -283.337534 
L 910.96004 -282.888266 
L 908.86963 -282.439029 
L 906.779221 -281.989883 
L 904.688811 -281.540881 
L 902.598402 -281.09207 
L 900.507992 -280.643516 
L 898.417582 -280.195259 
L 896.327173 -279.747359 
L 894.236763 -279.299862 
L 892.146354 -278.852821 
L 890.055944 -278.406288 
L 887.965534 -277.960318 
L 885.875125 -277.514956 
L 883.784715 -277.070247 
L 881.694306 -276.626245 
L 879.603896 -276.182995 
L 877.513487 -275.740542 
L 875.423077 -275.298933 
L 873.332667 -274.858213 
L 871.242258 -274.41842 
L 869.151848 -273.979599 
L 867.061439 -273.541789 
L 864.971029 -273.105035 
L 862.880619 -272.669367 
L 860.79021 -272.234824 
L 858.6998 -271.801451 
L 856.609391 -271.369278 
L 854.518981 -270.938344 
L 852.428571 -270.508679 
L 850.338162 -270.080313 
L 848.247752 -269.653276 
L 846.157343 -269.227592 
L 844.066933 -268.803298 
L 841.976523 -268.380417 
L 839.886114 -267.95898 
L 837.795704 -267.539009 
L 835.705295 -267.120535 
L 833.614885 -266.703573 
L 831.524476 -266.288153 
L 829.434066 -265.874291 
L 827.343656 -265.462009 
L 825.253247 -265.051323 
L 823.162837 -264.642262 
L 821.072428 -264.234828 
L 818.982018 -263.82905 
L 816.891608 -263.424943 
L 814.801199 -263.022515 
L 812.710789 -262.621789 
L 810.62038 -262.222773 
L 808.52997 -261.825489 
L 806.43956 -261.429937 
L 804.349151 -261.036141 
L 802.258741 -260.644107 
L 800.168332 -260.253851 
L 798.077922 -259.865372 
L 795.987512 -259.478687 
L 793.897103 -259.093802 
L 791.806693 -258.710726 
L 789.716284 -258.329466 
L 787.625874 -257.950021 
L 785.535465 -257.572415 
L 783.445055 -257.19664 
L 781.354645 -256.822719 
L 779.264236 -256.450644 
L 777.173826 -256.080423 
L 775.083417 -255.712064 
L 772.993007 -255.345566 
L 770.902597 -254.980944 
L 768.812188 -254.618192 
L 766.721778 -254.257316 
L 764.631369 -253.898317 
L 762.540959 -253.541202 
L 760.450549 -253.185979 
L 758.36014 -252.83264 
L 756.26973 -252.481193 
L 754.179321 -252.131645 
L 752.088911 -251.783997 
L 749.998501 -251.438248 
L 747.908092 -251.094399 
L 745.817682 -250.752449 
L 743.727273 -250.412406 
L 741.636863 -250.074262 
L 739.546454 -249.738026 
L 737.456044 -249.403697 
L 735.365634 -249.071267 
L 733.275225 -248.740751 
L 731.184815 -248.412143 
L 729.094406 -248.085441 
L 727.003996 -247.760655 
L 724.913586 -247.437767 
L 722.823177 -247.116795 
L 720.732767 -246.797722 
L 718.642358 -246.480555 
L 716.551948 -246.165296 
L 714.461538 -245.851952 
L 712.371129 -245.540514 
L 710.280719 -245.230976 
L 708.19031 -244.923337 
L 706.0999 -244.617606 
L 704.009491 -244.313773 
L 701.919081 -244.011848 
L 699.828671 -243.711815 
L 697.738262 -243.413681 
L 695.647852 -243.117446 
L 693.557443 -242.823103 
L 691.467033 -242.530645 
L 689.376623 -242.240078 
L 687.286214 -241.951396 
L 685.195804 -241.664598 
L 683.105395 -241.379684 
L 681.014985 -241.096639 
L 678.924575 -240.815463 
L 676.834166 -240.536156 
L 674.743756 -240.258718 
L 672.653347 -239.98315 
L 670.562937 -239.709435 
L 668.472527 -239.437574 
L 666.382118 -239.167551 
L 664.291708 -238.899382 
L 662.201299 -238.633045 
L 660.110889 -238.368538 
L 658.02048 -238.105855 
L 655.93007 -237.844988 
L 653.83966 -237.585929 
L 651.749251 -237.328678 
L 649.658841 -237.073221 
L 647.568432 -236.819549 
L 645.478022 -236.567654 
L 643.387612 -236.31753 
L 641.297203 -236.069161 
L 639.206793 -235.822547 
L 637.116384 -235.577673 
L 635.025974 -235.334516 
L 632.935564 -235.093084 
L 630.845155 -234.853346 
L 628.754745 -234.615295 
L 626.664336 -234.378922 
L 624.573926 -234.144214 
L 622.483516 -233.911147 
L 620.393107 -233.679706 
L 618.302697 -233.449883 
L 616.212288 -233.221655 
L 614.121878 -232.995 
L 612.031469 -232.769903 
L 609.941059 -232.546341 
L 607.850649 -232.324298 
L 605.76024 -232.103752 
L 603.66983 -231.884679 
L 601.579421 -231.667058 
L 599.489011 -231.450866 
L 597.398601 -231.236063 
L 595.308192 -231.022636 
L 593.217782 -230.810554 
L 591.127373 -230.599793 
L 589.036963 -230.390325 
L 586.946553 -230.18211 
L 584.856144 -229.975125 
L 582.765734 -229.769334 
L 580.675325 -229.564705 
L 578.584915 -229.3612 
L 576.494505 -229.15879 
L 574.404096 -228.957443 
L 572.313686 -228.757107 
L 570.223277 -228.55775 
L 568.132867 -228.359336 
L 566.042458 -228.161819 
L 563.952048 -227.965167 
L 561.861638 -227.769329 
L 559.771229 -227.574258 
L 557.680819 -227.379916 
L 555.59041 -227.186266 
L 553.5 -226.993254 
L 551.40959 -226.800834 
L 549.319181 -226.608962 
L 547.228771 -226.417583 
L 545.138362 -226.22666 
L 543.047952 -226.036133 
L 540.957542 -225.845955 
L 538.867133 -225.65608 
L 536.776723 -225.466457 
L 534.686314 -225.277031 
L 532.595904 -225.087749 
L 530.505495 -224.898559 
L 528.415085 -224.709414 
L 526.324675 -224.520269 
L 524.234266 -224.331063 
L 522.143856 -224.141751 
L 520.053447 -223.95228 
L 517.963037 -223.762595 
L 515.872627 -223.572653 
L 513.782218 -223.382399 
L 511.691808 -223.19178 
L 509.601399 -223.000743 
L 507.510989 -222.809251 
L 505.420579 -222.617249 
L 503.33017 -222.424685 
L 501.23976 -222.231513 
L 499.149351 -222.037688 
L 497.058941 -221.843172 
L 494.968531 -221.647903 
L 492.878122 -221.451845 
L 490.787712 -221.254958 
L 488.697303 -221.057197 
L 486.606893 -220.858517 
L 484.516484 -220.658887 
L 482.426074 -220.458262 
L 480.335664 -220.256596 
L 478.245255 -220.053859 
L 476.154845 -219.850013 
L 474.064436 -219.645019 
L 471.974026 -219.438848 
L 469.883616 -219.231461 
L 467.793207 -219.022828 
L 465.702797 -218.812918 
L 463.612388 -218.601694 
L 461.521978 -218.389133 
L 459.431568 -218.175205 
L 457.341159 -217.959878 
L 455.250749 -217.743131 
L 453.16034 -217.52494 
L 451.06993 -217.305275 
L 448.97952 -217.084114 
L 446.889111 -216.861432 
L 444.798701 -216.637217 
L 442.708292 -216.411443 
L 440.617882 -216.184082 
L 438.527473 -215.955117 
L 436.437063 -215.724535 
L 434.346653 -215.492318 
L 432.256244 -215.258446 
L 430.165834 -215.022902 
L 428.075425 -214.785671 
L 425.985015 -214.546738 
L 423.894605 -214.306089 
L 421.804196 -214.063714 
L 419.713786 -213.8196 
L 417.623377 -213.573731 
L 415.532967 -213.326091 
L 413.442557 -213.076681 
L 411.352148 -212.825486 
L 409.261738 -212.572497 
L 407.171329 -212.317693 
L 405.080919 -212.061073 
L 402.990509 -211.802637 
L 400.9001 -211.54237 
L 398.80969 -211.280257 
L 396.719281 -211.016297 
L 394.628871 -210.750484 
L 392.538462 -210.482817 
L 390.448052 -210.213281 
L 388.357642 -209.941875 
L 386.267233 -209.668586 
L 384.176823 -209.39342 
L 382.086414 -209.116362 
L 379.996004 -208.837412 
L 377.905594 -208.556571 
L 375.815185 -208.27383 
L 373.724775 -207.989181 
L 371.634366 -207.702626 
L 369.543956 -207.414157 
L 367.453546 -207.123772 
L 365.363137 -206.831474 
L 363.272727 -206.537252 
L 361.182318 -206.241117 
L 359.091908 -205.943059 
L 357.001499 -205.643078 
L 354.911089 -205.341168 
L 352.820679 -205.037329 
L 350.73027 -204.731559 
L 348.63986 -204.423852 
L 346.549451 -204.114215 
L 344.459041 -203.802648 
L 342.368631 -203.489137 
L 340.278222 -203.173695 
L 338.187812 -202.856316 
L 336.097403 -202.537 
L 334.006993 -202.215746 
L 331.916583 -201.892547 
L 329.826174 -201.567418 
L 327.735764 -201.240345 
L 325.645355 -200.911341 
L 323.554945 -200.580401 
L 321.464535 -200.247522 
L 319.374126 -199.912707 
L 317.283716 -199.575954 
L 315.193307 -199.237271 
L 313.102897 -198.89665 
L 311.012488 -198.554108 
L 308.922078 -198.209635 
L 306.831668 -197.863226 
L 304.741259 -197.514894 
L 302.650849 -197.164632 
L 300.56044 -196.812448 
L 298.47003 -196.458349 
L 296.37962 -196.102328 
L 294.289211 -195.7444 
L 292.198801 -195.384558 
L 290.108392 -195.022816 
L 288.017982 -194.659167 
L 285.927572 -194.293618 
L 283.837163 -193.926178 
L 281.746753 -193.556854 
L 279.656344 -193.185645 
L 277.565934 -192.81256 
L 275.475524 -192.437598 
L 273.385115 -192.060767 
L 271.294705 -191.682082 
L 269.204296 -191.301551 
L 267.113886 -190.919174 
L 265.023477 -190.534965 
L 262.933067 -190.148918 
L 260.842657 -189.761063 
L 258.752248 -189.371392 
L 256.661838 -188.979928 
L 254.571429 -188.586678 
L 252.481019 -188.19165 
L 250.390609 -187.794868 
L 248.3002 -187.39633 
L 246.20979 -186.99606 
L 244.119381 -186.594066 
L 242.028971 -186.190362 
L 239.938561 -185.784963 
L 237.848152 -185.377893 
L 235.757742 -184.969167 
L 233.667333 -184.5588 
L 231.576923 -184.146822 
L 229.486513 -183.733241 
L 227.396104 -183.318079 
L 225.305694 -182.901368 
L 223.215285 -182.483122 
L 221.124875 -182.063364 
L 219.034466 -181.642124 
L 216.944056 -181.219418 
L 214.853646 -180.795284 
L 212.763237 -180.369744 
L 210.672827 -179.942837 
L 208.582418 -179.514585 
L 206.492008 -179.085025 
L 204.401598 -178.654182 
L 202.311189 -178.222093 
L 200.220779 -177.788796 
L 198.13037 -177.354321 
L 196.03996 -176.918707 
L 193.94955 -176.481998 
L 191.859141 -176.044226 
L 189.768731 -175.605444 
L 187.678322 -175.165673 
L 185.587912 -174.724976 
L 183.497502 -174.283382 
L 181.407093 -173.840945 
L 179.316683 -173.397702 
L 177.226274 -172.9537 
L 175.135864 -172.508999 
L 173.045455 -172.063636 
z
" id="m632306af70" style="stroke:#59981a;stroke-opacity:0.5;"/>
    </defs>
    <g clip-path="url(#p754428202f)">
     <use style="fill:#59981a;fill-opacity:0.5;stroke:#59981a;stroke-opacity:0.5;" x="0" xlink:href="#m632306af70" y="1080"/>
    </g>
   </g>
   <g id="line2d_1">
    <path clip-path="url(#p754428202f)" d="M 173.045455 905.535675 
L 191.859141 880.127655 
L 206.492008 860.718298 
L 221.124875 841.707626 
L 233.667333 825.779312 
L 246.20979 810.222331 
L 258.752248 795.060641 
L 269.204296 782.740476 
L 279.656344 770.714343 
L 290.108392 758.987721 
L 300.56044 747.564539 
L 311.012488 736.44756 
L 321.464535 725.638531 
L 331.916583 715.138372 
L 342.368631 704.947376 
L 352.820679 695.065299 
L 363.272727 685.491318 
L 373.724775 676.223685 
L 384.176823 667.260462 
L 394.628871 658.59835 
L 405.080919 650.232888 
L 415.532967 642.158306 
L 425.985015 634.366939 
L 436.437063 626.849091 
L 446.889111 619.592296 
L 457.341159 612.580939 
L 469.883616 604.464456 
L 482.426074 596.633808 
L 497.058941 587.793959 
L 513.782218 577.969107 
L 563.952048 548.717392 
L 578.584915 539.806544 
L 591.127373 531.90063 
L 603.66983 523.69923 
L 614.121878 516.612075 
L 624.573926 509.276668 
L 635.025974 501.678995 
L 645.478022 493.807901 
L 655.93007 485.654706 
L 666.382118 477.212815 
L 676.834166 468.477038 
L 687.286214 459.443593 
L 697.738262 450.10986 
L 708.19031 440.473755 
L 718.642358 430.534065 
L 729.094406 420.290111 
L 739.546454 409.741699 
L 749.998501 398.889217 
L 760.450549 387.73349 
L 770.902597 376.276264 
L 781.354645 364.520253 
L 791.806693 352.469144 
L 802.258741 340.128418 
L 814.801199 324.947087 
L 827.343656 309.375848 
L 839.886114 293.437737 
L 852.428571 277.163064 
L 867.061439 257.802785 
L 883.784715 235.280713 
L 906.779221 203.878782 
L 933.954545 166.663636 
L 933.954545 166.663636 
" style="fill:none;stroke:#ff0000;stroke-linecap:round;stroke-width:4;"/>
   </g>
   <g id="line2d_2">
    <path clip-path="url(#p754428202f)" d="M 173.045455 907.433453 
L 198.13037 896.176676 
L 219.034466 887.053691 
L 237.848152 879.105246 
L 254.571429 872.278045 
L 271.294705 865.692079 
L 288.017982 859.357856 
L 304.741259 853.281842 
L 321.464535 847.467738 
L 338.187812 841.917113 
L 354.911089 836.630193 
L 371.634366 831.605814 
L 388.357642 826.841455 
L 405.080919 822.332524 
L 421.804196 818.071585 
L 438.527473 814.047323 
L 455.250749 810.243039 
L 474.064436 806.196468 
L 494.968531 801.935012 
L 524.234266 796.226161 
L 566.042458 788.075617 
L 586.946553 783.777127 
L 605.76024 779.688527 
L 622.483516 775.843005 
L 639.206793 771.776195 
L 655.93007 767.47313 
L 672.653347 762.92385 
L 689.376623 758.121874 
L 706.0999 753.063305 
L 722.823177 747.745881 
L 739.546454 742.168794 
L 756.26973 736.332269 
L 772.993007 730.237858 
L 789.716284 723.889135 
L 806.43956 717.292387 
L 823.162837 710.457652 
L 839.886114 703.400807 
L 858.6998 695.225336 
L 879.603896 685.902903 
L 910.96004 671.636368 
L 933.954545 661.142773 
L 933.954545 661.142773 
" style="fill:none;stroke:#0000ff;stroke-linecap:round;stroke-width:4;"/>
   </g>
   <g id="line2d_3">
    <path clip-path="url(#p754428202f)" d="M 173.045455 907.936364 
L 206.492008 900.914975 
L 233.667333 895.4412 
L 258.752248 890.628608 
L 281.746753 886.443146 
L 304.741259 882.485106 
L 327.735764 878.759655 
L 350.73027 875.268441 
L 373.724775 872.010819 
L 396.719281 868.983703 
L 419.713786 866.1804 
L 444.798701 863.362783 
L 469.883616 860.768539 
L 501.23976 857.768487 
L 595.308192 848.977364 
L 620.393107 846.320294 
L 645.478022 843.432346 
L 668.472527 840.562426 
L 691.467033 837.469355 
L 714.461538 834.148048 
L 737.456044 830.596303 
L 760.450549 826.814021 
L 783.445055 822.80336 
L 806.43956 818.570063 
L 831.524476 813.711847 
L 858.6998 808.198549 
L 890.055944 801.593712 
L 933.954545 792.179744 
L 933.954545 792.179744 
" style="fill:none;stroke:#59981a;stroke-linecap:round;stroke-width:4;"/>
   </g>
   <g id="patch_3">
    <path d="M 135 945 
L 135 129.6 
" style="fill:none;stroke:#262626;stroke-linecap:square;stroke-linejoin:miter;stroke-width:0.8;"/>
   </g>
   <g id="patch_4">
    <path d="M 972 945 
L 972 129.6 
" style="fill:none;stroke:#262626;stroke-linecap:square;stroke-linejoin:miter;stroke-width:0.8;"/>
   </g>
   <g id="patch_5">
    <path d="M 135 945 
L 972 945 
" style="fill:none;stroke:#262626;stroke-linecap:square;stroke-linejoin:miter;stroke-width:0.8;"/>
   </g>
   <g id="patch_6">
    <path d="M 135 129.6 
L 972 129.6 
" style="fill:none;stroke:#262626;stroke-linecap:square;stroke-linejoin:miter;stroke-width:0.8;"/>
   </g>
   <g id="text_18">
    <!-- Consomation annuelle par luminaire par type d'éclairage -->
    <g style="fill:#262626;" transform="translate(196.664062 123.6)scale(0.25 -0.25)">
     <defs>
      <path d="M 2194 1759 
Q 1497 1759 1228 1600 
Q 959 1441 959 1056 
Q 959 750 1161 570 
Q 1363 391 1709 391 
Q 2188 391 2477 730 
Q 2766 1069 2766 1631 
L 2766 1759 
L 2194 1759 
z
M 3341 1997 
L 3341 0 
L 2766 0 
L 2766 531 
Q 2569 213 2275 61 
Q 1981 -91 1556 -91 
Q 1019 -91 701 211 
Q 384 513 384 1019 
Q 384 1609 779 1909 
Q 1175 2209 1959 2209 
L 2766 2209 
L 2766 2266 
Q 2766 2663 2505 2880 
Q 2244 3097 1772 3097 
Q 1472 3097 1187 3025 
Q 903 2953 641 2809 
L 641 3341 
Q 956 3463 1253 3523 
Q 1550 3584 1831 3584 
Q 2591 3584 2966 3190 
Q 3341 2797 3341 1997 
z
" id="DejaVuSans-61" transform="scale(0.015625)"/>
      <path d="M 1172 4494 
L 1172 3500 
L 2356 3500 
L 2356 3053 
L 1172 3053 
L 1172 1153 
Q 1172 725 1289 603 
Q 1406 481 1766 481 
L 2356 481 
L 2356 0 
L 1766 0 
Q 1100 0 847 248 
Q 594 497 594 1153 
L 594 3053 
L 172 3053 
L 172 3500 
L 594 3500 
L 594 4494 
L 1172 4494 
z
" id="DejaVuSans-74" transform="scale(0.015625)"/>
      <path d="M 603 4863 
L 1178 4863 
L 1178 0 
L 603 0 
L 603 4863 
z
" id="DejaVuSans-6c" transform="scale(0.015625)"/>
      <path d="M 1159 525 
L 1159 -1331 
L 581 -1331 
L 581 3500 
L 1159 3500 
L 1159 2969 
Q 1341 3281 1617 3432 
Q 1894 3584 2278 3584 
Q 2916 3584 3314 3078 
Q 3713 2572 3713 1747 
Q 3713 922 3314 415 
Q 2916 -91 2278 -91 
Q 1894 -91 1617 61 
Q 1341 213 1159 525 
z
M 3116 1747 
Q 3116 2381 2855 2742 
Q 2594 3103 2138 3103 
Q 1681 3103 1420 2742 
Q 1159 2381 1159 1747 
Q 1159 1113 1420 752 
Q 1681 391 2138 391 
Q 2594 391 2855 752 
Q 3116 1113 3116 1747 
z
" id="DejaVuSans-70" transform="scale(0.015625)"/>
      <path d="M 2059 -325 
Q 1816 -950 1584 -1140 
Q 1353 -1331 966 -1331 
L 506 -1331 
L 506 -850 
L 844 -850 
Q 1081 -850 1212 -737 
Q 1344 -625 1503 -206 
L 1606 56 
L 191 3500 
L 800 3500 
L 1894 763 
L 2988 3500 
L 3597 3500 
L 2059 -325 
z
" id="DejaVuSans-79" transform="scale(0.015625)"/>
      <path d="M 2906 2969 
L 2906 4863 
L 3481 4863 
L 3481 0 
L 2906 0 
L 2906 525 
Q 2725 213 2448 61 
Q 2172 -91 1784 -91 
Q 1150 -91 751 415 
Q 353 922 353 1747 
Q 353 2572 751 3078 
Q 1150 3584 1784 3584 
Q 2172 3584 2448 3432 
Q 2725 3281 2906 2969 
z
M 947 1747 
Q 947 1113 1208 752 
Q 1469 391 1925 391 
Q 2381 391 2643 752 
Q 2906 1113 2906 1747 
Q 2906 2381 2643 2742 
Q 2381 3103 1925 3103 
Q 1469 3103 1208 2742 
Q 947 2381 947 1747 
z
" id="DejaVuSans-64" transform="scale(0.015625)"/>
      <path d="M 1147 4666 
L 1147 2931 
L 616 2931 
L 616 4666 
L 1147 4666 
z
" id="DejaVuSans-27" transform="scale(0.015625)"/>
      <path d="M 3122 3366 
L 3122 2828 
Q 2878 2963 2633 3030 
Q 2388 3097 2138 3097 
Q 1578 3097 1268 2742 
Q 959 2388 959 1747 
Q 959 1106 1268 751 
Q 1578 397 2138 397 
Q 2388 397 2633 464 
Q 2878 531 3122 666 
L 3122 134 
Q 2881 22 2623 -34 
Q 2366 -91 2075 -91 
Q 1284 -91 818 406 
Q 353 903 353 1747 
Q 353 2603 823 3093 
Q 1294 3584 2113 3584 
Q 2378 3584 2631 3529 
Q 2884 3475 3122 3366 
z
" id="DejaVuSans-63" transform="scale(0.015625)"/>
     </defs>
     <use xlink:href="#DejaVuSans-43"/>
     <use x="69.824219" xlink:href="#DejaVuSans-6f"/>
     <use x="131.005859" xlink:href="#DejaVuSans-6e"/>
     <use x="194.384766" xlink:href="#DejaVuSans-73"/>
     <use x="246.484375" xlink:href="#DejaVuSans-6f"/>
     <use x="307.666016" xlink:href="#DejaVuSans-6d"/>
     <use x="405.078125" xlink:href="#DejaVuSans-61"/>
     <use x="466.357422" xlink:href="#DejaVuSans-74"/>
     <use x="505.566406" xlink:href="#DejaVuSans-69"/>
     <use x="533.349609" xlink:href="#DejaVuSans-6f"/>
     <use x="594.53125" xlink:href="#DejaVuSans-6e"/>
     <use x="657.910156" xlink:href="#DejaVuSans-20"/>
     <use x="689.697266" xlink:href="#DejaVuSans-61"/>
     <use x="750.976562" xlink:href="#DejaVuSans-6e"/>
     <use x="814.355469" xlink:href="#DejaVuSans-6e"/>
     <use x="877.734375" xlink:href="#DejaVuSans-75"/>
     <use x="941.113281" xlink:href="#DejaVuSans-65"/>
     <use x="1002.636719" xlink:href="#DejaVuSans-6c"/>
     <use x="1030.419922" xlink:href="#DejaVuSans-6c"/>
     <use x="1058.203125" xlink:href="#DejaVuSans-65"/>
     <use x="1119.726562" xlink:href="#DejaVuSans-20"/>
     <use x="1151.513672" xlink:href="#DejaVuSans-70"/>
     <use x="1214.990234" xlink:href="#DejaVuSans-61"/>
     <use x="1276.269531" xlink:href="#DejaVuSans-72"/>
     <use x="1317.382812" xlink:href="#DejaVuSans-20"/>
     <use x="1349.169922" xlink:href="#DejaVuSans-6c"/>
     <use x="1376.953125" xlink:href="#DejaVuSans-75"/>
     <use x="1440.332031" xlink:href="#DejaVuSans-6d"/>
     <use x="1537.744141" xlink:href="#DejaVuSans-69"/>
     <use x="1565.527344" xlink:href="#DejaVuSans-6e"/>
     <use x="1628.90625" xlink:href="#DejaVuSans-61"/>
     <use x="1690.185547" xlink:href="#DejaVuSans-69"/>
     <use x="1717.96875" xlink:href="#DejaVuSans-72"/>
     <use x="1756.832031" xlink:href="#DejaVuSans-65"/>
     <use x="1818.355469" xlink:href="#DejaVuSans-20"/>
     <use x="1850.142578" xlink:href="#DejaVuSans-70"/>
     <use x="1913.619141" xlink:href="#DejaVuSans-61"/>
     <use x="1974.898438" xlink:href="#DejaVuSans-72"/>
     <use x="2016.011719" xlink:href="#DejaVuSans-20"/>
     <use x="2047.798828" xlink:href="#DejaVuSans-74"/>
     <use x="2087.007812" xlink:href="#DejaVuSans-79"/>
     <use x="2146.1875" xlink:href="#DejaVuSans-70"/>
     <use x="2209.664062" xlink:href="#DejaVuSans-65"/>
     <use x="2271.1875" xlink:href="#DejaVuSans-20"/>
     <use x="2302.974609" xlink:href="#DejaVuSans-64"/>
     <use x="2366.451172" xlink:href="#DejaVuSans-27"/>
     <use x="2393.941406" xlink:href="#DejaVuSans-e9"/>
     <use x="2455.464844" xlink:href="#DejaVuSans-63"/>
     <use x="2510.445312" xlink:href="#DejaVuSans-6c"/>
     <use x="2538.228516" xlink:href="#DejaVuSans-61"/>
     <use x="2599.507812" xlink:href="#DejaVuSans-69"/>
     <use x="2627.291016" xlink:href="#DejaVuSans-72"/>
     <use x="2668.404297" xlink:href="#DejaVuSans-61"/>
     <use x="2729.683594" xlink:href="#DejaVuSans-67"/>
     <use x="2793.160156" xlink:href="#DejaVuSans-65"/>
    </g>
   </g>
   <g id="legend_1">
    <g id="patch_7">
     <path d="M 145.5 224.829687 
L 278.875781 224.829687 
Q 281.875781 224.829687 281.875781 221.829687 
L 281.875781 140.1 
Q 281.875781 137.1 278.875781 137.1 
L 145.5 137.1 
Q 142.5 137.1 142.5 140.1 
L 142.5 221.829687 
Q 142.5 224.829687 145.5 224.829687 
z
" style="fill:#ffffff;opacity:0.8;stroke:#cccccc;stroke-linejoin:miter;"/>
    </g>
    <g id="text_19">
     <!-- Consommation -->
     <g style="fill:#262626;" transform="translate(174.422266 150.698437)scale(0.1 -0.1)">
      <use xlink:href="#DejaVuSans-43"/>
      <use x="69.824219" xlink:href="#DejaVuSans-6f"/>
      <use x="131.005859" xlink:href="#DejaVuSans-6e"/>
      <use x="194.384766" xlink:href="#DejaVuSans-73"/>
      <use x="246.484375" xlink:href="#DejaVuSans-6f"/>
      <use x="307.666016" xlink:href="#DejaVuSans-6d"/>
      <use x="405.078125" xlink:href="#DejaVuSans-6d"/>
      <use x="502.490234" xlink:href="#DejaVuSans-61"/>
      <use x="563.769531" xlink:href="#DejaVuSans-74"/>
      <use x="602.978516" xlink:href="#DejaVuSans-69"/>
      <use x="630.761719" xlink:href="#DejaVuSans-6f"/>
      <use x="691.943359" xlink:href="#DejaVuSans-6e"/>
     </g>
    </g>
    <g id="line2d_4">
     <path d="M 148.5 166.425781 
L 178.5 166.425781 
" style="fill:none;stroke:#ff0000;stroke-linecap:round;stroke-width:4;"/>
    </g>
    <g id="line2d_5"/>
    <g id="text_20">
     <!-- Sodium -->
     <g style="fill:#262626;" transform="translate(190.5 171.675781)scale(0.15 -0.15)">
      <defs>
       <path d="M 3425 4513 
L 3425 3897 
Q 3066 4069 2747 4153 
Q 2428 4238 2131 4238 
Q 1616 4238 1336 4038 
Q 1056 3838 1056 3469 
Q 1056 3159 1242 3001 
Q 1428 2844 1947 2747 
L 2328 2669 
Q 3034 2534 3370 2195 
Q 3706 1856 3706 1288 
Q 3706 609 3251 259 
Q 2797 -91 1919 -91 
Q 1588 -91 1214 -16 
Q 841 59 441 206 
L 441 856 
Q 825 641 1194 531 
Q 1563 422 1919 422 
Q 2459 422 2753 634 
Q 3047 847 3047 1241 
Q 3047 1584 2836 1778 
Q 2625 1972 2144 2069 
L 1759 2144 
Q 1053 2284 737 2584 
Q 422 2884 422 3419 
Q 422 4038 858 4394 
Q 1294 4750 2059 4750 
Q 2388 4750 2728 4690 
Q 3069 4631 3425 4513 
z
" id="DejaVuSans-53" transform="scale(0.015625)"/>
      </defs>
      <use xlink:href="#DejaVuSans-53"/>
      <use x="63.476562" xlink:href="#DejaVuSans-6f"/>
      <use x="124.658203" xlink:href="#DejaVuSans-64"/>
      <use x="188.134766" xlink:href="#DejaVuSans-69"/>
      <use x="215.917969" xlink:href="#DejaVuSans-75"/>
      <use x="279.296875" xlink:href="#DejaVuSans-6d"/>
     </g>
    </g>
    <g id="line2d_6">
     <path d="M 148.5 188.442969 
L 178.5 188.442969 
" style="fill:none;stroke:#0000ff;stroke-linecap:round;stroke-width:4;"/>
    </g>
    <g id="line2d_7"/>
    <g id="text_21">
     <!-- LED -->
     <g style="fill:#262626;" transform="translate(190.5 193.692969)scale(0.15 -0.15)">
      <defs>
       <path d="M 628 4666 
L 1259 4666 
L 1259 531 
L 3531 531 
L 3531 0 
L 628 0 
L 628 4666 
z
" id="DejaVuSans-4c" transform="scale(0.015625)"/>
       <path d="M 1259 4147 
L 1259 519 
L 2022 519 
Q 2988 519 3436 956 
Q 3884 1394 3884 2338 
Q 3884 3275 3436 3711 
Q 2988 4147 2022 4147 
L 1259 4147 
z
M 628 4666 
L 1925 4666 
Q 3281 4666 3915 4102 
Q 4550 3538 4550 2338 
Q 4550 1131 3912 565 
Q 3275 0 1925 0 
L 628 0 
L 628 4666 
z
" id="DejaVuSans-44" transform="scale(0.015625)"/>
      </defs>
      <use xlink:href="#DejaVuSans-4c"/>
      <use x="55.712891" xlink:href="#DejaVuSans-45"/>
      <use x="118.896484" xlink:href="#DejaVuSans-44"/>
     </g>
    </g>
    <g id="line2d_8">
     <path d="M 148.5 210.460156 
L 178.5 210.460156 
" style="fill:none;stroke:#59981a;stroke-linecap:round;stroke-width:4;"/>
    </g>
    <g id="line2d_9"/>
    <g id="text_22">
     <!-- SMART LED -->
     <g style="fill:#262626;" transform="translate(190.5 215.710156)scale(0.15 -0.15)">
      <defs>
       <path d="M 628 4666 
L 1569 4666 
L 2759 1491 
L 3956 4666 
L 4897 4666 
L 4897 0 
L 4281 0 
L 4281 4097 
L 3078 897 
L 2444 897 
L 1241 4097 
L 1241 0 
L 628 0 
L 628 4666 
z
" id="DejaVuSans-4d" transform="scale(0.015625)"/>
       <path d="M 2188 4044 
L 1331 1722 
L 3047 1722 
L 2188 4044 
z
M 1831 4666 
L 2547 4666 
L 4325 0 
L 3669 0 
L 3244 1197 
L 1141 1197 
L 716 0 
L 50 0 
L 1831 4666 
z
" id="DejaVuSans-41" transform="scale(0.015625)"/>
       <path d="M 2841 2188 
Q 3044 2119 3236 1894 
Q 3428 1669 3622 1275 
L 4263 0 
L 3584 0 
L 2988 1197 
Q 2756 1666 2539 1819 
Q 2322 1972 1947 1972 
L 1259 1972 
L 1259 0 
L 628 0 
L 628 4666 
L 2053 4666 
Q 2853 4666 3247 4331 
Q 3641 3997 3641 3322 
Q 3641 2881 3436 2590 
Q 3231 2300 2841 2188 
z
M 1259 4147 
L 1259 2491 
L 2053 2491 
Q 2509 2491 2742 2702 
Q 2975 2913 2975 3322 
Q 2975 3731 2742 3939 
Q 2509 4147 2053 4147 
L 1259 4147 
z
" id="DejaVuSans-52" transform="scale(0.015625)"/>
       <path d="M -19 4666 
L 3928 4666 
L 3928 4134 
L 2272 4134 
L 2272 0 
L 1638 0 
L 1638 4134 
L -19 4134 
L -19 4666 
z
" id="DejaVuSans-54" transform="scale(0.015625)"/>
      </defs>
      <use xlink:href="#DejaVuSans-53"/>
      <use x="63.476562" xlink:href="#DejaVuSans-4d"/>
      <use x="149.755859" xlink:href="#DejaVuSans-41"/>
      <use x="218.164062" xlink:href="#DejaVuSans-52"/>
      <use x="280.396484" xlink:href="#DejaVuSans-54"/>
      <use x="341.480469" xlink:href="#DejaVuSans-20"/>
      <use x="373.267578" xlink:href="#DejaVuSans-4c"/>
      <use x="428.980469" xlink:href="#DejaVuSans-45"/>
      <use x="492.164062" xlink:href="#DejaVuSans-44"/>
     </g>
    </g>
   </g>
  </g>
 </g>
 <defs>
  <clipPath id="p754428202f">
   <rect height="815.4" width="837" x="135" y="129.6"/>
  </clipPath>
 </defs>
</svg>
